<?xml version="1.0" encoding="UTF-8" standalone="no"?>
<!-- Created with Inkscape (http://www.inkscape.org/) -->

<svg
   width="120mm"
   height="215mm"
   viewBox="0 0 120 215"
   version="1.1"
   id="svg1"
   inkscape:version="1.4 (e7c3feb100, 2024-10-09)"
   sodipodi:docname="logus.svg"
   xmlns:inkscape="http://www.inkscape.org/namespaces/inkscape"
   xmlns:sodipodi="http://sodipodi.sourceforge.net/DTD/sodipodi-0.dtd"
   xmlns="http://www.w3.org/2000/svg"
   xmlns:svg="http://www.w3.org/2000/svg">
  <sodipodi:namedview
     id="namedview1"
     pagecolor="#ffffff"
     bordercolor="#000000"
     borderopacity="0.25"
     inkscape:showpageshadow="2"
     inkscape:pageopacity="0.0"
     inkscape:pagecheckerboard="0"
     inkscape:deskcolor="#d1d1d1"
     inkscape:document-units="mm"
     inkscape:zoom="0.90105615"
     inkscape:cx="537.14743"
     inkscape:cy="250.81678"
     inkscape:window-width="2560"
     inkscape:window-height="1371"
     inkscape:window-x="0"
     inkscape:window-y="0"
     inkscape:window-maximized="1"
     inkscape:current-layer="svg1" />
  <defs
     id="defs1" />
  <rect
     style="display:inline;fill:#000000;fill-opacity:1;stroke-width:0.17109"
     id="rect15"
     width="20.000015"
     height="99.999878"
     x="49.99979"
     y="115.00012"
     ry="9.9999876"
     inkscape:label="middle finger" />
  <path
     id="path15"
     style="display:inline;fill:#000000;fill-opacity:1;stroke-width:0.29809"
     d="m 60.00001,90.000071 c -19.39002,0 -35.00048,15.609919 -35.00048,34.999899 v 65.00008 c 0,5.53999 4.46042,9.9999 10.00043,9.9999 5.54,0 9.99991,-4.45991 9.99991,-9.9999 v -65.00008 c 0,-8.30999 6.69013,-15.0001 15.00014,-15.0001 8.31,0 14.99961,6.69011 14.99961,15.0001 v 65.00008 c 0,5.53999 4.46042,9.9999 10.00042,9.9999 5.54001,0 9.99992,-4.45991 9.99992,-9.9999 v -65.00008 c 0,-19.38998 -15.60994,-34.999899 -34.99995,-34.999899 z"
     sodipodi:nodetypes="sssssssssssss" />
  <path
     id="path16"
     style="display:inline;fill:#000000;fill-opacity:1;stroke-width:0.17109"
     d="M 60.00001,65.000081 C 26.76067,65.000081 0.00112,91.758909 0,124.9979 v 50.00212 c 0,5.53999 4.45991,9.9999 9.99992,9.9999 5.54,0 9.9999,-4.45991 9.9999,-9.9999 v -50.00116 c 0,-22.15997 17.84017,-39.999573 40.00019,-39.999573 22.16001,0 39.99964,17.839603 39.99964,39.999573 v 45.00119 c 0,5.54 4.46043,9.9999 10.00043,9.9999 5.54001,0 9.99992,-4.4599 9.99992,-9.9999 v -45.00015 -0.002 C 119.999,91.758909 93.23933,65.000081 60.00001,65.000081 Z"
     sodipodi:nodetypes="ssssssssssscss" />
  <path
     id="path17"
     style="display:inline;fill:#000000;fill-opacity:1;stroke-width:0.79375"
     inkscape:label="circle"
     d="M 60.00001,7.5000003e-8 C 43.37999,7.5000003e-8 29.99974,13.380224 29.99974,30.000194 c 0,16.61998 13.38025,30.000203 30.00027,30.000203 16.62001,0 29.99973,-13.380223 29.99973,-30.000203 C 89.99974,13.380224 76.62002,7.5000003e-8 60.00001,7.5000003e-8 Z M 60.00001,20.000306 c 5.54,0 9.9999,4.459894 9.9999,9.999888 0,5.539993 -4.4599,9.999898 -9.9999,9.999898 -5.54001,0 -10.00044,-4.459905 -10.00044,-9.999898 0,-5.539994 4.46043,-9.999888 10.00044,-9.999888 z"
     sodipodi:nodetypes="ssssssssss" />
</svg>
